<?xml version="1.0" standalone="no"?>
<!DOCTYPE svg PUBLIC "-//W3C//DTD SVG 20010904//EN"
 "http://www.w3.org/TR/2001/REC-SVG-20010904/DTD/svg10.dtd">
<svg version="1.0" xmlns="http://www.w3.org/2000/svg"
 width="384.000000pt" height="384.000000pt" viewBox="0 0 384.000000 384.000000"
 preserveAspectRatio="xMidYMid meet">
<metadata>
Created by potrace 1.11, written by Peter Selinger 2001-2013
</metadata>
<g transform="translate(0.000000,384.000000) scale(0.100000,-0.100000)"
fill="#000000" stroke="none">
<path d="M1158 3603 l-63 -63 288 -286 c158 -157 287 -286 287 -287 0 -1 -309
-1 -688 -1 -554 1 -696 -1 -733 -12 -106 -31 -202 -127 -233 -232 -16 -52 -17
-152 -14 -1172 l3 -1115 27 -58 c46 -98 141 -173 247 -196 26 -6 681 -9 1645
-9 1350 0 1610 2 1656 14 72 19 155 77 197 138 67 97 64 35 61 1272 l-3 1119
-23 47 c-38 75 -96 134 -170 170 l-67 33 -693 2 c-381 0 -696 3 -698 6 -3 3
122 132 277 286 l282 282 -62 63 -62 63 -350 -350 -349 -349 -349 349 -350
350 -63 -64z"/>
</g>
</svg>
